<svg viewBox="0 0 434 434" xmlns="http://www.w3.org/2000/svg" fill="none" class="custom-svg">
    <path fill-rule="evenodd" clip-rule="evenodd" d="M0 58C0 25.9675 25.9675 0 58 0H376C408.033 0 434 25.9675 434 58V376C434 408.033 408.033 434 376 434H58C25.9675 434 0 408.033 0 376V58ZM286.416 371.214C270.771 371.214 257.473 366.129 246.522 355.96C235.961 345.399 230.681 331.906 230.681 315.478C230.681 299.051 235.961 285.753 246.522 275.584C257.473 265.023 270.771 259.743 286.416 259.743C302.452 259.743 315.751 265.023 326.311 275.584C336.871 285.753 342.152 299.051 342.152 315.478C342.152 331.906 336.871 345.399 326.311 355.96C315.751 366.129 302.452 371.214 286.416 371.214ZM286.416 175.26C270.771 175.26 257.473 170.176 246.522 160.007C235.961 149.446 230.681 135.952 230.681 119.525C230.681 103.098 235.961 89.7998 246.522 79.6306C257.473 69.0702 270.771 63.79 286.416 63.79C302.452 63.79 315.751 69.0702 326.311 79.6306C336.871 89.7998 342.152 103.098 342.152 119.525C342.152 135.952 336.871 149.446 326.311 160.007C315.751 170.176 302.452 175.26 286.416 175.26ZM139.735 259.953C155.771 259.953 169.069 265.233 179.63 275.794C190.19 285.963 195.47 299.261 195.47 315.688C195.47 332.116 190.19 345.609 179.63 356.17C169.069 366.339 155.771 371.424 139.735 371.424C124.09 371.424 110.792 366.339 99.8405 356.17C89.2802 345.609 84 332.116 84 315.688C84 299.261 89.2802 285.963 99.8405 275.794C110.792 265.233 124.09 259.953 139.735 259.953ZM171.47 315.688C171.47 326.347 168.309 333.474 162.819 339.039C157.195 344.382 150.099 347.424 139.735 347.424C130.009 347.424 122.72 344.527 116.504 338.888C111.105 333.345 108 326.25 108 315.688C108 304.919 111.214 298.16 116.488 293.081L116.494 293.076L116.5 293.07C122.839 286.957 130.108 283.953 139.735 283.953C149.925 283.953 156.954 287.059 162.659 292.764L162.819 292.924L162.982 293.081C168.257 298.16 171.47 304.919 171.47 315.688ZM84 119.735C84 103.308 89.2802 90.0098 99.8405 79.8405C110.792 69.2802 124.09 64 139.735 64C155.771 64 169.069 69.2802 179.63 79.8405C190.19 90.0098 195.47 103.308 195.47 119.735C195.47 136.162 190.19 149.656 179.63 160.217C169.069 170.386 155.771 175.47 139.735 175.47C124.09 175.47 110.792 170.386 99.8405 160.217C89.2802 149.656 84 136.162 84 119.735ZM171.47 119.735C171.47 130.393 168.309 137.521 162.819 143.086C157.195 148.429 150.099 151.47 139.735 151.47C130.009 151.47 122.72 148.573 116.504 142.935C111.105 137.392 108 130.297 108 119.735C108 108.966 111.214 102.207 116.488 97.1282L116.494 97.1225L116.5 97.1168C122.839 91.0041 130.108 88 139.735 88C149.925 88 156.954 91.106 162.659 96.8111L162.819 96.9712L162.982 97.1282C168.257 102.207 171.47 108.966 171.47 119.735Z" fill="white"/>
</svg>